# xmcd
#
# Track frame offsets: 
#        150
#        21433
#        38361
#        67763
#        89785
#        116647
#        138472
#        157778
#        182504
#
# Disc length: 2715 seconds
#
# Revision: 0
# Processed by: cddbd v1.5.2PL0 Copyright (c) Steve Scherf et al.
# Submitted via: ExactAudioCopyFreeDBPlugin 1.0
#
DISCID=6b0a9909
DTITLE=Bad Temper Joe - Ain't Worth A Damn
DYEAR=2018
DGENRE=Blues
TTITLE0=Farmers's Daughter
TTITLE1=Most Things Haven't Worked Out Yet
TTITLE2=If Tears Were Diamonds
TTITLE3=Nighthawk Woman Blues #9
TTITLE4=Deliah
TTITLE5=Man for the Road
TTITLE6=Honey for My Biscuit
TTITLE7=Spoonful
TTITLE8=I Bid You Goodnight, Sweet Marie
EXTD=
EXTT0=
EXTT1=
EXTT2=
EXTT3=
EXTT4=
EXTT5=
EXTT6=
EXTT7=
EXTT8=
PLAYORDER=
